# xmcd
#
# Track frame offsets:
#	150
#	18750
#	32751
#	52948
#	69161
#	86892
#	103065
#	121649
#	135664
#	155853
#	172054
#	189785
#
# Disc length: 2746 seconds
#
# Revision: 1
# Processed by: cddbd v1.5.2PL0 Copyright (c) Steve Scherf et al.
# Submitted via: audiograbber 1.83.01
#
DISCID=940ab80c
DTITLE=Various Artist - CB20404
DYEAR=1900
DGENRE=Country
TTITLE0=JoDee Messina - Was That My Life (Vocal)
TTITLE1=Jason Michael Carroll - Love Won't Let Me (Vocal)
TTITLE2=Maroon 5 - Unkissed (Vocal)
TTITLE3=Atreyu - So Wrong (Vocal)
TTITLE4=Danni Leigh - Last Train To San Antone (Vocal)
TTITLE5=Brett Eldridge - One Mississippi (Vocal)
TTITLE6=JoDee Messina - Was That My Life 
TTITLE7=Jason Michael Carroll - Love Won't Let Me
TTITLE8=Maroon 5 - Unkissed
TTITLE9=Atreyu - So Wrong
TTITLE10=Danni Leigh - Last Train To San Antone
TTITLE11=Brett Eldridge - One Mississippi
EXTD=
EXTT0=
EXTT1=
EXTT2=
EXTT3=
EXTT4=
EXTT5=
EXTT6=
EXTT7=
EXTT8=
EXTT9=
EXTT10=
EXTT11=
PLAYORDER=
